<svg width="379" height="733" viewBox="0 0 379 733" fill="none" xmlns="http://www.w3.org/2000/svg">
<path d="M99.5977 98.522C99.5977 20.3658 161.488 5.77814 192.433 8.25385C222.553 8.25385 282.792 26.3075 282.792 98.522C282.792 170.737 222.553 190.314 192.433 191.076C161.488 192.789 99.5977 176.678 99.5977 98.522Z" stroke="black" stroke-width="15"/>
<path d="M107.643 191.195H189.338H272.889C329.333 191.195 361.599 262.162 370.676 297.646V480.84C370.676 488.267 370.676 497.55 357.679 514.88C342.645 534.925 315.594 529.114 306.929 526.639L272.889 724.687H107.643L94.6461 618.236C91.3453 579.039 90.3138 511.166 61.8444 523.544C38.0852 533.874 8 506.834 8 480.84V297.646C8 224.368 74.4287 196.146 107.643 191.195Z" stroke="black" stroke-width="15"/>
</svg>
